<mxfile host="app.diagrams.net" modified="2024-03-01T04:51:11.038Z" agent="Mozilla/5.0 (Macintosh; Intel Mac OS X 10_15_7) AppleWebKit/605.1.15 (KHTML, like Gecko) Version/16.4 Safari/605.1.15" etag="Bi9U1OZXPhDNa_akC6Cj" version="23.0.1" type="github">
  <diagram name="第 1 页" id="fu7d0Rtub_Eh79JDdHf0">
    <mxGraphModel dx="824" dy="612" grid="1" gridSize="10" guides="1" tooltips="1" connect="1" arrows="1" fold="1" page="1" pageScale="1" pageWidth="827" pageHeight="1169" math="0" shadow="0">
      <root>
        <mxCell id="0" />
        <mxCell id="1" parent="0" />
        <mxCell id="ABnXI4RNKLQdEu6p_G51-1" value="" style="fontColor=#0066CC;verticalAlign=top;verticalLabelPosition=bottom;labelPosition=center;align=center;html=1;fillColor=#FFFFFF;strokeColor=#000000;gradientColor=none;gradientDirection=north;strokeWidth=2;shape=mxgraph.networks.radio_tower;rounded=1;shadow=0;comic=0;labelBackgroundColor=none;container=0;" vertex="1" parent="1">
          <mxGeometry x="250" y="240" width="60" height="100" as="geometry" />
        </mxCell>
        <mxCell id="ABnXI4RNKLQdEu6p_G51-2" value="&lt;b&gt;BS&lt;/b&gt;&lt;font style=&quot;font-size: 27px;&quot;&gt;&lt;sub&gt;1&lt;/sub&gt;&lt;/font&gt;" style="text;html=1;align=center;verticalAlign=middle;resizable=0;points=[];autosize=1;strokeColor=none;fillColor=none;fontSize=27;fontFamily=Times New Roman;shadow=1;glass=0;sketch=0;strokeWidth=8;container=0;" vertex="1" parent="1">
          <mxGeometry x="245" y="340" width="70" height="50" as="geometry" />
        </mxCell>
        <mxCell id="ABnXI4RNKLQdEu6p_G51-3" value="" style="fontColor=#0066CC;verticalAlign=top;verticalLabelPosition=bottom;labelPosition=center;align=center;html=1;fillColor=#FFFFFF;strokeColor=#000000;gradientColor=none;gradientDirection=north;strokeWidth=2;shape=mxgraph.networks.radio_tower;rounded=1;shadow=0;comic=0;labelBackgroundColor=none;container=0;" vertex="1" parent="1">
          <mxGeometry x="250" y="400" width="60" height="100" as="geometry" />
        </mxCell>
        <mxCell id="ABnXI4RNKLQdEu6p_G51-4" value="&lt;b&gt;BS&lt;/b&gt;&lt;span style=&quot;font-size: 22.5px;&quot;&gt;s&lt;/span&gt;" style="text;html=1;align=center;verticalAlign=middle;resizable=0;points=[];autosize=1;strokeColor=none;fillColor=none;fontSize=27;fontFamily=Times New Roman;shadow=1;glass=0;sketch=0;strokeWidth=8;container=0;" vertex="1" parent="1">
          <mxGeometry x="245" y="500" width="70" height="50" as="geometry" />
        </mxCell>
        <mxCell id="ABnXI4RNKLQdEu6p_G51-5" style="edgeStyle=orthogonalEdgeStyle;rounded=0;orthogonalLoop=1;jettySize=auto;html=1;exitX=0.33;exitY=0.5;exitDx=0;exitDy=0;exitPerimeter=0;entryX=0.467;entryY=0.27;entryDx=0;entryDy=0;entryPerimeter=0;" edge="1" parent="1" source="ABnXI4RNKLQdEu6p_G51-3" target="ABnXI4RNKLQdEu6p_G51-3">
          <mxGeometry relative="1" as="geometry" />
        </mxCell>
        <mxCell id="ABnXI4RNKLQdEu6p_G51-6" value="" style="fontColor=#0066CC;verticalAlign=top;verticalLabelPosition=bottom;labelPosition=center;align=center;html=1;fillColor=#FFFFFF;strokeColor=#000000;gradientColor=none;gradientDirection=north;strokeWidth=2;shape=mxgraph.networks.radio_tower;rounded=1;shadow=0;comic=0;labelBackgroundColor=none;container=0;" vertex="1" parent="1">
          <mxGeometry x="250" y="560" width="60" height="100" as="geometry" />
        </mxCell>
        <mxCell id="ABnXI4RNKLQdEu6p_G51-7" value="&lt;b&gt;BS&lt;/b&gt;&lt;span style=&quot;font-size: 22.5px;&quot;&gt;S&lt;/span&gt;" style="text;html=1;align=center;verticalAlign=middle;resizable=0;points=[];autosize=1;strokeColor=none;fillColor=none;fontSize=27;fontFamily=Times New Roman;shadow=1;glass=0;sketch=0;strokeWidth=8;container=0;" vertex="1" parent="1">
          <mxGeometry x="245" y="660" width="70" height="50" as="geometry" />
        </mxCell>
        <mxCell id="ABnXI4RNKLQdEu6p_G51-8" style="edgeStyle=orthogonalEdgeStyle;rounded=0;orthogonalLoop=1;jettySize=auto;html=1;exitX=0.33;exitY=0.5;exitDx=0;exitDy=0;exitPerimeter=0;entryX=0.467;entryY=0.27;entryDx=0;entryDy=0;entryPerimeter=0;" edge="1" parent="1" source="ABnXI4RNKLQdEu6p_G51-6" target="ABnXI4RNKLQdEu6p_G51-6">
          <mxGeometry relative="1" as="geometry" />
        </mxCell>
        <mxCell id="ABnXI4RNKLQdEu6p_G51-12" value="" style="shape=image;html=1;verticalAlign=top;verticalLabelPosition=bottom;labelBackgroundColor=#ffffff;imageAspect=0;aspect=fixed;image=https://cdn2.iconfinder.com/data/icons/whcompare-isometric-web-hosting-servers/50/value-server-128.png" vertex="1" parent="1">
          <mxGeometry x="24" y="400" width="128" height="128" as="geometry" />
        </mxCell>
        <mxCell id="ABnXI4RNKLQdEu6p_G51-13" value="&lt;b&gt;CPU&lt;/b&gt;" style="text;html=1;align=center;verticalAlign=middle;resizable=0;points=[];autosize=1;strokeColor=none;fillColor=none;fontSize=27;fontFamily=Times New Roman;shadow=1;glass=0;sketch=0;strokeWidth=8;container=0;" vertex="1" parent="1">
          <mxGeometry x="48" y="528" width="80" height="50" as="geometry" />
        </mxCell>
        <mxCell id="ABnXI4RNKLQdEu6p_G51-16" value="" style="endArrow=classic;startArrow=classic;html=1;rounded=0;strokeWidth=2;dashed=1;exitX=1;exitY=0;exitDx=0;exitDy=0;endSize=5;startSize=5;" edge="1" parent="1" source="ABnXI4RNKLQdEu6p_G51-12">
          <mxGeometry width="50" height="50" relative="1" as="geometry">
            <mxPoint x="130" y="400" as="sourcePoint" />
            <mxPoint x="240" y="300" as="targetPoint" />
          </mxGeometry>
        </mxCell>
        <mxCell id="ABnXI4RNKLQdEu6p_G51-17" value="" style="endArrow=classic;startArrow=classic;html=1;rounded=0;strokeWidth=2;dashed=1;endSize=5;startSize=5;" edge="1" parent="1" source="ABnXI4RNKLQdEu6p_G51-12">
          <mxGeometry width="50" height="50" relative="1" as="geometry">
            <mxPoint x="128" y="463.95" as="sourcePoint" />
            <mxPoint x="240" y="464" as="targetPoint" />
          </mxGeometry>
        </mxCell>
        <mxCell id="ABnXI4RNKLQdEu6p_G51-18" value="" style="endArrow=classic;startArrow=classic;html=1;rounded=0;strokeWidth=2;dashed=1;exitX=1.001;exitY=0.904;exitDx=0;exitDy=0;exitPerimeter=0;endSize=5;startSize=5;" edge="1" parent="1" source="ABnXI4RNKLQdEu6p_G51-12">
          <mxGeometry width="50" height="50" relative="1" as="geometry">
            <mxPoint x="80" y="760" as="sourcePoint" />
            <mxPoint x="240" y="620" as="targetPoint" />
          </mxGeometry>
        </mxCell>
        <mxCell id="ABnXI4RNKLQdEu6p_G51-41" value="" style="group" vertex="1" connectable="0" parent="1">
          <mxGeometry x="400" y="465" width="170" height="170" as="geometry" />
        </mxCell>
        <mxCell id="ABnXI4RNKLQdEu6p_G51-28" value="" style="whiteSpace=wrap;html=1;aspect=fixed;fillColor=#dae8fc;gradientColor=#7ea6e0;strokeColor=#6c8ebf;" vertex="1" parent="ABnXI4RNKLQdEu6p_G51-41">
          <mxGeometry width="170" height="170" as="geometry" />
        </mxCell>
        <mxCell id="ABnXI4RNKLQdEu6p_G51-29" value="" style="whiteSpace=wrap;html=1;aspect=fixed;fillColor=#cce5ff;strokeColor=#36393d;" vertex="1" parent="ABnXI4RNKLQdEu6p_G51-41">
          <mxGeometry x="15" y="13" width="40" height="40" as="geometry" />
        </mxCell>
        <mxCell id="ABnXI4RNKLQdEu6p_G51-33" value="" style="whiteSpace=wrap;html=1;aspect=fixed;fillColor=#cce5ff;strokeColor=#36393d;" vertex="1" parent="ABnXI4RNKLQdEu6p_G51-41">
          <mxGeometry x="65" y="13" width="40" height="40" as="geometry" />
        </mxCell>
        <mxCell id="ABnXI4RNKLQdEu6p_G51-34" value="" style="whiteSpace=wrap;html=1;aspect=fixed;fillColor=#cce5ff;strokeColor=#36393d;" vertex="1" parent="ABnXI4RNKLQdEu6p_G51-41">
          <mxGeometry x="115" y="13" width="40" height="40" as="geometry" />
        </mxCell>
        <mxCell id="ABnXI4RNKLQdEu6p_G51-35" value="" style="whiteSpace=wrap;html=1;aspect=fixed;fillColor=#cce5ff;strokeColor=#36393d;" vertex="1" parent="ABnXI4RNKLQdEu6p_G51-41">
          <mxGeometry x="15" y="65" width="40" height="40" as="geometry" />
        </mxCell>
        <mxCell id="ABnXI4RNKLQdEu6p_G51-36" value="" style="whiteSpace=wrap;html=1;aspect=fixed;fillColor=#cce5ff;strokeColor=#36393d;" vertex="1" parent="ABnXI4RNKLQdEu6p_G51-41">
          <mxGeometry x="15" y="115" width="40" height="40" as="geometry" />
        </mxCell>
        <mxCell id="ABnXI4RNKLQdEu6p_G51-37" value="" style="whiteSpace=wrap;html=1;aspect=fixed;fillColor=#cce5ff;strokeColor=#36393d;" vertex="1" parent="ABnXI4RNKLQdEu6p_G51-41">
          <mxGeometry x="65" y="65" width="40" height="40" as="geometry" />
        </mxCell>
        <mxCell id="ABnXI4RNKLQdEu6p_G51-38" value="" style="whiteSpace=wrap;html=1;aspect=fixed;fillColor=#cce5ff;strokeColor=#36393d;" vertex="1" parent="ABnXI4RNKLQdEu6p_G51-41">
          <mxGeometry x="115" y="65" width="40" height="40" as="geometry" />
        </mxCell>
        <mxCell id="ABnXI4RNKLQdEu6p_G51-39" value="" style="whiteSpace=wrap;html=1;aspect=fixed;fillColor=#cce5ff;strokeColor=#36393d;" vertex="1" parent="ABnXI4RNKLQdEu6p_G51-41">
          <mxGeometry x="65" y="115" width="40" height="40" as="geometry" />
        </mxCell>
        <mxCell id="ABnXI4RNKLQdEu6p_G51-40" value="" style="whiteSpace=wrap;html=1;aspect=fixed;fillColor=#cce5ff;strokeColor=#36393d;" vertex="1" parent="ABnXI4RNKLQdEu6p_G51-41">
          <mxGeometry x="115" y="115" width="40" height="40" as="geometry" />
        </mxCell>
        <mxCell id="ABnXI4RNKLQdEu6p_G51-78" value="" style="endArrow=classic;html=1;rounded=0;strokeWidth=3;exitX=0.67;exitY=0.5;exitDx=0;exitDy=0;exitPerimeter=0;fillColor=#ffcd28;gradientColor=#ffa500;strokeColor=#d79b00;" edge="1" parent="ABnXI4RNKLQdEu6p_G51-41" source="ABnXI4RNKLQdEu6p_G51-3">
          <mxGeometry width="50" height="50" relative="1" as="geometry">
            <mxPoint x="-9.899999999999977" y="-35" as="sourcePoint" />
            <mxPoint x="79.89999999999998" y="95" as="targetPoint" />
          </mxGeometry>
        </mxCell>
        <mxCell id="ABnXI4RNKLQdEu6p_G51-43" value="" style="group" vertex="1" connectable="0" parent="1">
          <mxGeometry x="657" y="467" width="170" height="170" as="geometry" />
        </mxCell>
        <mxCell id="ABnXI4RNKLQdEu6p_G51-44" value="" style="whiteSpace=wrap;html=1;aspect=fixed;fillColor=#dae8fc;gradientColor=#7ea6e0;strokeColor=#6c8ebf;" vertex="1" parent="ABnXI4RNKLQdEu6p_G51-43">
          <mxGeometry width="170" height="170" as="geometry" />
        </mxCell>
        <mxCell id="ABnXI4RNKLQdEu6p_G51-45" value="" style="whiteSpace=wrap;html=1;aspect=fixed;fillColor=#cce5ff;strokeColor=#36393d;" vertex="1" parent="ABnXI4RNKLQdEu6p_G51-43">
          <mxGeometry x="15" y="13" width="40" height="40" as="geometry" />
        </mxCell>
        <mxCell id="ABnXI4RNKLQdEu6p_G51-46" value="" style="whiteSpace=wrap;html=1;aspect=fixed;fillColor=#cce5ff;strokeColor=#36393d;" vertex="1" parent="ABnXI4RNKLQdEu6p_G51-43">
          <mxGeometry x="65" y="13" width="40" height="40" as="geometry" />
        </mxCell>
        <mxCell id="ABnXI4RNKLQdEu6p_G51-47" value="" style="whiteSpace=wrap;html=1;aspect=fixed;fillColor=#cce5ff;strokeColor=#36393d;" vertex="1" parent="ABnXI4RNKLQdEu6p_G51-43">
          <mxGeometry x="115" y="13" width="40" height="40" as="geometry" />
        </mxCell>
        <mxCell id="ABnXI4RNKLQdEu6p_G51-48" value="" style="whiteSpace=wrap;html=1;aspect=fixed;fillColor=#cce5ff;strokeColor=#36393d;" vertex="1" parent="ABnXI4RNKLQdEu6p_G51-43">
          <mxGeometry x="15" y="65" width="40" height="40" as="geometry" />
        </mxCell>
        <mxCell id="ABnXI4RNKLQdEu6p_G51-49" value="" style="whiteSpace=wrap;html=1;aspect=fixed;fillColor=#cce5ff;strokeColor=#36393d;" vertex="1" parent="ABnXI4RNKLQdEu6p_G51-43">
          <mxGeometry x="15" y="115" width="40" height="40" as="geometry" />
        </mxCell>
        <mxCell id="ABnXI4RNKLQdEu6p_G51-50" value="" style="whiteSpace=wrap;html=1;aspect=fixed;fillColor=#cce5ff;strokeColor=#36393d;" vertex="1" parent="ABnXI4RNKLQdEu6p_G51-43">
          <mxGeometry x="65" y="65" width="40" height="40" as="geometry" />
        </mxCell>
        <mxCell id="ABnXI4RNKLQdEu6p_G51-51" value="" style="whiteSpace=wrap;html=1;aspect=fixed;fillColor=#cce5ff;strokeColor=#36393d;" vertex="1" parent="ABnXI4RNKLQdEu6p_G51-43">
          <mxGeometry x="115" y="65" width="40" height="40" as="geometry" />
        </mxCell>
        <mxCell id="ABnXI4RNKLQdEu6p_G51-52" value="" style="whiteSpace=wrap;html=1;aspect=fixed;fillColor=#cce5ff;strokeColor=#36393d;" vertex="1" parent="ABnXI4RNKLQdEu6p_G51-43">
          <mxGeometry x="65" y="115" width="40" height="40" as="geometry" />
        </mxCell>
        <mxCell id="ABnXI4RNKLQdEu6p_G51-53" value="" style="whiteSpace=wrap;html=1;aspect=fixed;fillColor=#cce5ff;strokeColor=#36393d;" vertex="1" parent="ABnXI4RNKLQdEu6p_G51-43">
          <mxGeometry x="115" y="115" width="40" height="40" as="geometry" />
        </mxCell>
        <mxCell id="ABnXI4RNKLQdEu6p_G51-92" value="" style="endArrow=classic;html=1;rounded=0;strokeWidth=3;fillColor=#0050ef;strokeColor=#001DBC;" edge="1" parent="ABnXI4RNKLQdEu6p_G51-43" target="ABnXI4RNKLQdEu6p_G51-66">
          <mxGeometry width="50" height="50" relative="1" as="geometry">
            <mxPoint x="83" y="92" as="sourcePoint" />
            <mxPoint x="302.75" y="-94" as="targetPoint" />
          </mxGeometry>
        </mxCell>
        <mxCell id="ABnXI4RNKLQdEu6p_G51-65" value="" style="sketch=0;pointerEvents=1;shadow=0;dashed=0;html=1;strokeColor=none;fillColor=#505050;labelPosition=center;verticalLabelPosition=bottom;verticalAlign=top;outlineConnect=0;align=center;shape=mxgraph.office.devices.cell_phone_iphone_standalone;" vertex="1" parent="1">
          <mxGeometry x="930" y="150" width="50" height="90" as="geometry" />
        </mxCell>
        <mxCell id="ABnXI4RNKLQdEu6p_G51-66" value="" style="sketch=0;pointerEvents=1;shadow=0;dashed=0;html=1;strokeColor=none;fillColor=#505050;labelPosition=center;verticalLabelPosition=bottom;verticalAlign=top;outlineConnect=0;align=center;shape=mxgraph.office.devices.cell_phone_iphone_standalone;" vertex="1" parent="1">
          <mxGeometry x="1010" y="320" width="50" height="90" as="geometry" />
        </mxCell>
        <mxCell id="ABnXI4RNKLQdEu6p_G51-67" value="&lt;b&gt;UE&lt;/b&gt;&lt;font style=&quot;font-size: 27px;&quot;&gt;&lt;sub&gt;1&lt;/sub&gt;&lt;/font&gt;" style="text;html=1;align=center;verticalAlign=middle;resizable=0;points=[];autosize=1;strokeColor=none;fillColor=none;fontSize=27;fontFamily=Times New Roman;shadow=1;glass=0;sketch=0;strokeWidth=8;container=0;" vertex="1" parent="1">
          <mxGeometry x="920" y="250" width="70" height="50" as="geometry" />
        </mxCell>
        <mxCell id="ABnXI4RNKLQdEu6p_G51-68" value="&lt;b&gt;UE&lt;/b&gt;&lt;font style=&quot;font-size: 27px;&quot;&gt;&lt;sub&gt;k&lt;/sub&gt;&lt;/font&gt;" style="text;html=1;align=center;verticalAlign=middle;resizable=0;points=[];autosize=1;strokeColor=none;fillColor=none;fontSize=27;fontFamily=Times New Roman;shadow=1;glass=0;sketch=0;strokeWidth=8;container=0;" vertex="1" parent="1">
          <mxGeometry x="1000" y="418" width="70" height="50" as="geometry" />
        </mxCell>
        <mxCell id="ABnXI4RNKLQdEu6p_G51-69" value="" style="sketch=0;pointerEvents=1;shadow=0;dashed=0;html=1;strokeColor=none;fillColor=#505050;labelPosition=center;verticalLabelPosition=bottom;verticalAlign=top;outlineConnect=0;align=center;shape=mxgraph.office.devices.cell_phone_iphone_standalone;" vertex="1" parent="1">
          <mxGeometry x="930" y="465" width="50" height="90" as="geometry" />
        </mxCell>
        <mxCell id="ABnXI4RNKLQdEu6p_G51-70" value="&lt;b&gt;UE&lt;/b&gt;&lt;span style=&quot;font-size: 22.5px;&quot;&gt;&lt;sub&gt;K&lt;/sub&gt;&lt;/span&gt;" style="text;html=1;align=center;verticalAlign=middle;resizable=0;points=[];autosize=1;strokeColor=none;fillColor=none;fontSize=27;fontFamily=Times New Roman;shadow=1;glass=0;sketch=0;strokeWidth=8;container=0;" vertex="1" parent="1">
          <mxGeometry x="920" y="563" width="70" height="50" as="geometry" />
        </mxCell>
        <mxCell id="ABnXI4RNKLQdEu6p_G51-72" value="" style="group" vertex="1" connectable="0" parent="1">
          <mxGeometry x="500" y="80" width="257.1942446043166" height="260.00000000000006" as="geometry" />
        </mxCell>
        <mxCell id="ABnXI4RNKLQdEu6p_G51-9" value="" style="image;points=[];aspect=fixed;html=1;align=center;shadow=0;dashed=0;image=img/lib/allied_telesis/buildings/School_Building.svg;" vertex="1" parent="ABnXI4RNKLQdEu6p_G51-72">
          <mxGeometry width="257.1942446043166" height="260.00000000000006" as="geometry" />
        </mxCell>
        <mxCell id="ABnXI4RNKLQdEu6p_G51-75" value="" style="image;aspect=fixed;perimeter=ellipsePerimeter;html=1;align=center;shadow=0;dashed=0;spacingTop=3;image=img/lib/active_directory/input_output_filter.svg;" vertex="1" parent="ABnXI4RNKLQdEu6p_G51-72">
          <mxGeometry x="161" y="217" width="13.4" height="20" as="geometry" />
        </mxCell>
        <mxCell id="ABnXI4RNKLQdEu6p_G51-74" value="" style="image;aspect=fixed;perimeter=ellipsePerimeter;html=1;align=center;shadow=0;dashed=0;spacingTop=3;image=img/lib/active_directory/input_output_filter.svg;" vertex="1" parent="ABnXI4RNKLQdEu6p_G51-72">
          <mxGeometry x="49" y="149" width="13.4" height="20" as="geometry" />
        </mxCell>
        <mxCell id="ABnXI4RNKLQdEu6p_G51-76" value="&lt;b&gt;RIS&lt;/b&gt;&lt;i style=&quot;border-color: var(--border-color); -webkit-text-stroke-color: currentcolor !important;&quot;&gt;&lt;sub style=&quot;border-color: var(--border-color); -webkit-text-stroke-color: currentcolor !important;&quot;&gt;l&lt;/sub&gt;&lt;/i&gt;" style="text;html=1;align=center;verticalAlign=middle;resizable=0;points=[];autosize=1;strokeColor=none;fillColor=none;fontSize=27;fontFamily=Times New Roman;shadow=1;glass=0;sketch=0;strokeWidth=8;container=0;" vertex="1" parent="1">
          <mxGeometry x="450" y="655" width="70" height="50" as="geometry" />
        </mxCell>
        <mxCell id="ABnXI4RNKLQdEu6p_G51-77" value="&lt;b&gt;RIS&lt;/b&gt;&lt;span style=&quot;border-color: var(--border-color); -webkit-text-stroke-color: currentcolor !important;&quot;&gt;&lt;span style=&quot;border-color: var(--border-color); -webkit-text-stroke-color: currentcolor !important;&quot;&gt;&lt;sub&gt;&lt;i&gt;l+&lt;/i&gt;1&lt;/sub&gt;&lt;/span&gt;&lt;/span&gt;" style="text;html=1;align=center;verticalAlign=middle;resizable=0;points=[];autosize=1;strokeColor=none;fillColor=none;fontSize=27;fontFamily=Times New Roman;shadow=1;glass=0;sketch=0;strokeWidth=8;container=0;" vertex="1" parent="1">
          <mxGeometry x="692" y="652" width="100" height="50" as="geometry" />
        </mxCell>
        <mxCell id="ABnXI4RNKLQdEu6p_G51-80" value="" style="endArrow=none;dashed=1;html=1;dashPattern=1 3;strokeWidth=2;rounded=0;entryX=0;entryY=0.75;entryDx=0;entryDy=0;exitX=0;exitY=0;exitDx=0;exitDy=0;" edge="1" parent="1" source="ABnXI4RNKLQdEu6p_G51-28" target="ABnXI4RNKLQdEu6p_G51-74">
          <mxGeometry width="50" height="50" relative="1" as="geometry">
            <mxPoint x="410" y="360" as="sourcePoint" />
            <mxPoint x="460" y="310" as="targetPoint" />
          </mxGeometry>
        </mxCell>
        <mxCell id="ABnXI4RNKLQdEu6p_G51-81" value="" style="endArrow=none;dashed=1;html=1;dashPattern=1 3;strokeWidth=2;rounded=0;exitX=1;exitY=0;exitDx=0;exitDy=0;entryX=0.75;entryY=1;entryDx=0;entryDy=0;" edge="1" parent="1" source="ABnXI4RNKLQdEu6p_G51-28" target="ABnXI4RNKLQdEu6p_G51-74">
          <mxGeometry width="50" height="50" relative="1" as="geometry">
            <mxPoint x="410" y="475" as="sourcePoint" />
            <mxPoint x="560" y="180" as="targetPoint" />
          </mxGeometry>
        </mxCell>
        <mxCell id="ABnXI4RNKLQdEu6p_G51-82" value="" style="endArrow=none;dashed=1;html=1;dashPattern=1 3;strokeWidth=2;rounded=0;exitX=0;exitY=0;exitDx=0;exitDy=0;entryX=0;entryY=0.5;entryDx=0;entryDy=0;" edge="1" parent="1" source="ABnXI4RNKLQdEu6p_G51-44" target="ABnXI4RNKLQdEu6p_G51-75">
          <mxGeometry width="50" height="50" relative="1" as="geometry">
            <mxPoint x="410" y="475" as="sourcePoint" />
            <mxPoint x="660" y="240" as="targetPoint" />
          </mxGeometry>
        </mxCell>
        <mxCell id="ABnXI4RNKLQdEu6p_G51-83" value="" style="endArrow=none;dashed=1;html=1;dashPattern=1 3;strokeWidth=2;rounded=0;exitX=1;exitY=0;exitDx=0;exitDy=0;entryX=0.75;entryY=1;entryDx=0;entryDy=0;" edge="1" parent="1" source="ABnXI4RNKLQdEu6p_G51-44" target="ABnXI4RNKLQdEu6p_G51-75">
          <mxGeometry width="50" height="50" relative="1" as="geometry">
            <mxPoint x="420" y="485" as="sourcePoint" />
            <mxPoint x="670" y="250" as="targetPoint" />
          </mxGeometry>
        </mxCell>
        <mxCell id="ABnXI4RNKLQdEu6p_G51-84" value="" style="endArrow=classic;html=1;rounded=0;strokeWidth=3;exitX=1.025;exitY=0.369;exitDx=0;exitDy=0;exitPerimeter=0;fillColor=#e51400;strokeColor=#B20000;" edge="1" parent="1" target="ABnXI4RNKLQdEu6p_G51-66">
          <mxGeometry width="50" height="50" relative="1" as="geometry">
            <mxPoint x="480.2499999999998" y="560" as="sourcePoint" />
            <mxPoint x="916" y="406.09962561041766" as="targetPoint" />
          </mxGeometry>
        </mxCell>
        <mxCell id="ABnXI4RNKLQdEu6p_G51-85" value="" style="shape=waypoint;sketch=0;fillStyle=solid;size=6;pointerEvents=1;points=[];fillColor=none;resizable=0;rotatable=0;perimeter=centerPerimeter;snapToPoint=1;shadow=1;glass=0;strokeWidth=1;fontFamily=Times New Roman;fontSize=18;container=0;" vertex="1" parent="1">
          <mxGeometry x="580" y="538" width="40" height="40" as="geometry" />
        </mxCell>
        <mxCell id="ABnXI4RNKLQdEu6p_G51-86" value="" style="shape=waypoint;sketch=0;fillStyle=solid;size=6;pointerEvents=1;points=[];fillColor=none;resizable=0;rotatable=0;perimeter=centerPerimeter;snapToPoint=1;shadow=1;glass=0;strokeWidth=1;fontFamily=Times New Roman;fontSize=18;container=0;" vertex="1" parent="1">
          <mxGeometry x="590" y="538" width="40" height="40" as="geometry" />
        </mxCell>
        <mxCell id="ABnXI4RNKLQdEu6p_G51-87" value="" style="shape=waypoint;sketch=0;fillStyle=solid;size=6;pointerEvents=1;points=[];fillColor=none;resizable=0;rotatable=0;perimeter=centerPerimeter;snapToPoint=1;shadow=1;glass=0;strokeWidth=1;fontFamily=Times New Roman;fontSize=18;container=0;" vertex="1" parent="1">
          <mxGeometry x="600" y="538" width="40" height="40" as="geometry" />
        </mxCell>
        <mxCell id="ABnXI4RNKLQdEu6p_G51-89" value="" style="endArrow=classic;html=1;rounded=0;strokeWidth=3;exitX=0.67;exitY=0.5;exitDx=0;exitDy=0;exitPerimeter=0;fillColor=#008a00;strokeColor=#005700;" edge="1" parent="1" source="ABnXI4RNKLQdEu6p_G51-1">
          <mxGeometry width="50" height="50" relative="1" as="geometry">
            <mxPoint x="320" y="400" as="sourcePoint" />
            <mxPoint x="480" y="560" as="targetPoint" />
          </mxGeometry>
        </mxCell>
        <mxCell id="ABnXI4RNKLQdEu6p_G51-90" value="" style="endArrow=classic;html=1;rounded=0;strokeWidth=3;exitX=0.67;exitY=0.5;exitDx=0;exitDy=0;exitPerimeter=0;fillColor=#ffcd28;gradientColor=#ffa500;strokeColor=#d79b00;" edge="1" parent="1" source="ABnXI4RNKLQdEu6p_G51-3">
          <mxGeometry width="50" height="50" relative="1" as="geometry">
            <mxPoint x="550" y="450" as="sourcePoint" />
            <mxPoint x="739.9" y="560" as="targetPoint" />
          </mxGeometry>
        </mxCell>
        <mxCell id="ABnXI4RNKLQdEu6p_G51-93" value="" style="endArrow=classic;html=1;rounded=0;strokeWidth=3;exitX=0.67;exitY=0.5;exitDx=0;exitDy=0;exitPerimeter=0;fillColor=#008a00;strokeColor=#005700;" edge="1" parent="1" source="ABnXI4RNKLQdEu6p_G51-1">
          <mxGeometry width="50" height="50" relative="1" as="geometry">
            <mxPoint x="530" y="300" as="sourcePoint" />
            <mxPoint x="740" y="560" as="targetPoint" />
          </mxGeometry>
        </mxCell>
        <mxCell id="ABnXI4RNKLQdEu6p_G51-96" value="&lt;font color=&quot;#ff8000&quot; face=&quot;Times New Roman&quot; style=&quot;font-size: 25px;&quot;&gt;&lt;b style=&quot;font-style: italic;&quot;&gt;G&lt;/b&gt;&lt;sub&gt;&lt;i&gt;s,l+&lt;/i&gt;1&lt;/sub&gt;&lt;/font&gt;" style="text;html=1;align=center;verticalAlign=middle;resizable=0;points=[];autosize=1;strokeColor=none;fillColor=none;fontColor=#FFB366;rotation=0;" vertex="1" parent="1">
          <mxGeometry x="300" y="418" width="90" height="50" as="geometry" />
        </mxCell>
        <mxCell id="ABnXI4RNKLQdEu6p_G51-98" value="&lt;font color=&quot;#ff8000&quot; face=&quot;Times New Roman&quot; style=&quot;font-size: 25px;&quot;&gt;&lt;b style=&quot;font-style: italic;&quot;&gt;G&lt;/b&gt;&lt;sub&gt;&lt;i&gt;s,l&lt;/i&gt;&lt;/sub&gt;&lt;/font&gt;" style="text;html=1;align=center;verticalAlign=middle;resizable=0;points=[];autosize=1;strokeColor=none;fillColor=none;fontColor=#FFB366;rotation=0;" vertex="1" parent="1">
          <mxGeometry x="315" y="480" width="60" height="50" as="geometry" />
        </mxCell>
        <mxCell id="ABnXI4RNKLQdEu6p_G51-100" value="&lt;font color=&quot;#006600&quot; face=&quot;Times New Roman&quot; style=&quot;font-size: 25px;&quot;&gt;&lt;b style=&quot;font-style: italic;&quot;&gt;G&lt;/b&gt;&lt;sub&gt;1&lt;i&gt;,l+&lt;/i&gt;1&lt;/sub&gt;&lt;/font&gt;" style="text;html=1;align=center;verticalAlign=middle;resizable=0;points=[];autosize=1;strokeColor=none;fillColor=none;fontColor=#FFB366;rotation=0;" vertex="1" parent="1">
          <mxGeometry x="369" y="300" width="90" height="50" as="geometry" />
        </mxCell>
        <mxCell id="ABnXI4RNKLQdEu6p_G51-101" value="&lt;font color=&quot;#006600&quot; face=&quot;Times New Roman&quot; style=&quot;font-size: 25px;&quot;&gt;&lt;b style=&quot;font-style: italic;&quot;&gt;G&lt;/b&gt;&lt;sub&gt;1&lt;i&gt;,l&lt;/i&gt;&lt;/sub&gt;&lt;/font&gt;" style="text;html=1;align=center;verticalAlign=middle;resizable=0;points=[];autosize=1;strokeColor=none;fillColor=none;fontColor=#FFB366;rotation=0;" vertex="1" parent="1">
          <mxGeometry x="365" y="368" width="60" height="50" as="geometry" />
        </mxCell>
        <mxCell id="ABnXI4RNKLQdEu6p_G51-105" value="" style="group;fontColor=#990000;" vertex="1" connectable="0" parent="1">
          <mxGeometry x="860" y="350" width="60" height="60" as="geometry" />
        </mxCell>
        <mxCell id="ABnXI4RNKLQdEu6p_G51-103" value="&lt;font face=&quot;Times New Roman&quot; style=&quot;font-size: 25px;&quot;&gt;&lt;b style=&quot;font-style: italic;&quot;&gt;h&lt;/b&gt;&lt;span style=&quot;font-style: italic;&quot;&gt;&lt;sub&gt;rkl&lt;/sub&gt;&lt;/span&gt;&lt;/font&gt;" style="text;html=1;align=center;verticalAlign=middle;resizable=0;points=[];autosize=1;strokeColor=none;fillColor=none;fontColor=#990000;rotation=0;" vertex="1" parent="ABnXI4RNKLQdEu6p_G51-105">
          <mxGeometry y="10" width="60" height="50" as="geometry" />
        </mxCell>
        <mxCell id="ABnXI4RNKLQdEu6p_G51-104" value="&lt;font face=&quot;Times New Roman&quot;&gt;&lt;span style=&quot;caret-color: rgb(255, 128, 0); font-size: 25px;&quot;&gt;&lt;i&gt;&lt;sup&gt;H&lt;/sup&gt;&lt;/i&gt;&lt;/span&gt;&lt;/font&gt;" style="text;html=1;align=center;verticalAlign=middle;resizable=0;points=[];autosize=1;strokeColor=none;fillColor=none;fontColor=#990000;rotation=0;" vertex="1" parent="ABnXI4RNKLQdEu6p_G51-105">
          <mxGeometry x="10" width="40" height="50" as="geometry" />
        </mxCell>
        <mxCell id="ABnXI4RNKLQdEu6p_G51-106" value="" style="group;fontColor=#3333FF;" vertex="1" connectable="0" parent="1">
          <mxGeometry x="865" y="461" width="70" height="60" as="geometry" />
        </mxCell>
        <mxCell id="ABnXI4RNKLQdEu6p_G51-107" value="&lt;font face=&quot;Times New Roman&quot; style=&quot;font-size: 25px;&quot;&gt;&lt;b style=&quot;font-style: italic;&quot;&gt;h&lt;/b&gt;&lt;sub&gt;&lt;i&gt;rkl&lt;/i&gt;+1&lt;/sub&gt;&lt;/font&gt;" style="text;html=1;align=center;verticalAlign=middle;resizable=0;points=[];autosize=1;strokeColor=none;fillColor=none;fontColor=#3333FF;rotation=0;" vertex="1" parent="ABnXI4RNKLQdEu6p_G51-106">
          <mxGeometry x="-10" y="10" width="80" height="50" as="geometry" />
        </mxCell>
        <mxCell id="ABnXI4RNKLQdEu6p_G51-108" value="&lt;font face=&quot;Times New Roman&quot;&gt;&lt;span style=&quot;caret-color: rgb(255, 128, 0); font-size: 25px;&quot;&gt;&lt;i&gt;&lt;sup&gt;H&lt;/sup&gt;&lt;/i&gt;&lt;/span&gt;&lt;/font&gt;" style="text;html=1;align=center;verticalAlign=middle;resizable=0;points=[];autosize=1;strokeColor=none;fillColor=none;fontColor=#3333FF;rotation=0;" vertex="1" parent="ABnXI4RNKLQdEu6p_G51-106">
          <mxGeometry width="40" height="50" as="geometry" />
        </mxCell>
      </root>
    </mxGraphModel>
  </diagram>
</mxfile>
